<?xml version="1.0" encoding="utf-8"?>
<!-- Generator: Adobe Illustrator 25.0.1, SVG Export Plug-In . SVG Version: 6.00 Build 0)  -->
<svg version="1.1" id="Слой_1" xmlns="http://www.w3.org/2000/svg" xmlns:xlink="http://www.w3.org/1999/xlink" x="0px" y="0px"
	 viewBox="0 0 126.5 87.1" style="enable-background:new 0 0 126.5 87.1;" xml:space="preserve">
<style type="text/css">
	.st0{fill-rule:evenodd;clip-rule:evenodd;fill:#F4683F;}
</style>
<path class="st0" d="M60.3,0.4c-3.8,1-7.1,4.4-7.9,8.4c-0.3,1.5-0.2,4.1,0.4,5.5c0.2,0.6,0.4,1.1,0.3,1.2c0,0-1,0.3-2,0.5
	c-7.2,1.7-15.2,5.7-20.8,10.3c-5.8,4.8-10.2,10.4-13.6,17.1c-2.6,5.3-4.4,11.4-4.8,16.5l-0.2,1.8H0l0.1,3.6c0.1,2.5,0.3,4.2,0.7,5.5
	c2.1,7.8,8.3,13.8,16.5,15.8c1.6,0.4,4.6,0.4,46,0.4h44.3l2.1-0.5c6.6-1.7,11.9-6.1,14.7-12.1c1.4-2.9,1.8-5.1,2-9.1l0.1-3.6h-11.6
	l-0.2-1.8c-0.8-9-5.4-19.6-11.6-27c-7.1-8.3-16.4-14.2-26.8-16.8c-1.6-0.4-2.9-0.7-2.9-0.8c0,0,0.1-0.5,0.3-1.1
	c0.5-1.5,0.7-4,0.4-5.5C72.8,2.6,66.4-1.2,60.3,0.4z M65,7.7c1.1,0.6,2,1.9,2,3.2c0,1.8-1.9,3.6-3.7,3.6c-1.1,0-2.6-0.9-3.2-1.9
	c-0.7-1.1-0.7-2.2,0-3.4C60.9,7.4,63.1,6.8,65,7.7z M67.9,22.1c13.1,1.4,24.9,8.4,32.2,19.1c1.8,2.6,4.3,7.7,5.3,10.6
	c0.9,2.6,1.7,6.2,1.9,8.4l0.2,1.6c-29.5,0-59,0-88.5,0l0.2-1.6c0.5-4.3,1.9-9.2,4.2-13.8c3.3-6.7,7.7-11.8,14-16.4
	c2.7-1.9,8.7-5,11.9-6C55.2,22.1,61.8,21.4,67.9,22.1z M118.4,69.6c-0.1,0.3-0.6,1.4-1,2.4c-1.8,3.7-5.9,6.8-10.1,7.6
	c-2.6,0.5-85.5,0.5-88.1,0C15,78.7,10.9,75.7,9.1,72c-0.5-1-1-2.1-1-2.4l-0.2-0.5h110.6L118.4,69.6z"/>
</svg>
